<svg xmlns="http://www.w3.org/2000/svg" xmlns:xlink="http://www.w3.org/1999/xlink" width="197.49" height="62.9" viewBox="0 0 197.49 62.9">
  <defs>
    <linearGradient id="linear-gradient" x1="0.02" y1="0.497" x2="0.713" y2="0.502" gradientUnits="objectBoundingBox">
      <stop offset="0" stop-color="#daba75"/>
      <stop offset="1" stop-color="#9e8b50"/>
    </linearGradient>
  </defs>
  <g id="NormaLab_official_logo" data-name="NormaLab official logo" transform="translate(-110 -43.922)">
    <g id="Group_20" data-name="Group 20" transform="translate(102.1 37.212)">
      <g id="Group_19" data-name="Group 19">
        <path id="Path_109" data-name="Path 109" d="M76.23,50.99c0,.6,0,1.08.03,1.34.02.18.05.3.25.33.09.01.23.03.29.03a.047.047,0,0,1,.05.05c0,.03-.03.05-.1.05-.35,0-.76-.02-.79-.02s-.47.02-.66.02c-.07,0-.1-.01-.1-.05,0-.02.01-.04.05-.04a.628.628,0,0,0,.19-.03c.13-.03.17-.15.19-.33.03-.25.03-.74.03-1.34V48.4l-.92.01c-.4.01-.55.05-.65.2a.875.875,0,0,0-.1.2c-.01.05-.04.06-.06.06a.045.045,0,0,1-.04-.05c0-.07.13-.62.14-.67s.04-.12.07-.12a2.028,2.028,0,0,0,.28.07c.18.02.43.03.5.03h2.41a2.536,2.536,0,0,0,.46-.03c.09-.01.15-.03.18-.03s.03.04.03.07c0,.19-.02.63-.02.7,0,.05-.03.08-.06.08s-.04-.02-.05-.11l-.01-.07c-.02-.19-.16-.33-.77-.34l-.8-.01v2.6Z" fill="#9e8b50"/>
        <path id="Path_110" data-name="Path 110" d="M84.62,50.99c0,.6.01,1.08.04,1.34.02.18.04.3.23.33.09.01.23.03.28.03a.056.056,0,0,1,.06.05c0,.03-.04.05-.11.05-.35,0-.76-.02-.79-.02s-.44.02-.63.02c-.07,0-.1-.01-.1-.05a.047.047,0,0,1,.05-.05.628.628,0,0,0,.19-.03c.13-.03.15-.15.17-.33.03-.25.03-.72.03-1.31V50.4c0-.03-.01-.04-.04-.04H81.33a.037.037,0,0,0-.04.04v.62c0,.6,0,1.07.03,1.32.02.18.04.3.23.33.09.01.23.03.29.03a.047.047,0,0,1,.05.05c0,.03-.03.05-.1.05-.36,0-.76-.02-.79-.02s-.44.02-.64.02c-.07,0-.1-.01-.1-.05a.047.047,0,0,1,.05-.05.693.693,0,0,0,.2-.03c.12-.03.14-.14.17-.33A11.438,11.438,0,0,0,80.72,51V49.9c0-.96,0-1.13-.01-1.33s-.05-.31-.26-.34a1.549,1.549,0,0,0-.22-.01.064.064,0,0,1-.05-.05c0-.04.03-.05.1-.05.29,0,.7.01.73.01s.44-.01.63-.01c.07,0,.1.01.1.05a.064.064,0,0,1-.05.05,1.037,1.037,0,0,0-.16.01c-.17.04-.21.12-.23.34-.01.2-.01.38-.01,1.34v.13c0,.04.01.04.04.04H84c.02,0,.04,0,.04-.04v-.13c0-.96-.01-1.15-.01-1.34-.01-.21-.04-.31-.25-.34a1.549,1.549,0,0,0-.22-.01.054.054,0,0,1-.05-.05c0-.04.03-.05.1-.05.28,0,.7.01.73.01s.44-.01.63-.01c.07,0,.11.01.11.05a.065.065,0,0,1-.06.05,1.105,1.105,0,0,0-.16.01c-.17.04-.2.12-.22.34-.01.2-.01.37-.01,1.33v1.09Z" fill="#9e8b50"/>
        <path id="Path_111" data-name="Path 111" d="M88.33,49.9c0-.96,0-1.13-.01-1.33s-.05-.31-.26-.34a1.549,1.549,0,0,0-.22-.01.064.064,0,0,1-.05-.05c0-.04.03-.05.1-.05.29,0,.7.01.74.01s1.38.01,1.53,0a2.893,2.893,0,0,0,.29-.04.318.318,0,0,1,.09-.03c.02,0,.03.03.03.06a2.1,2.1,0,0,0-.05.29c-.01.06-.02.33-.04.41-.01.03-.03.07-.06.07s-.05-.03-.05-.08a.685.685,0,0,0-.04-.22c-.04-.1-.11-.14-.46-.19-.11-.01-.85-.02-.92-.02-.03,0-.04.02-.04.07v1.68c0,.04,0,.07.04.07.08,0,.92,0,1.07-.01s.25-.02.31-.09c.04-.06.07-.1.09-.1s.04.01.04.05a2.587,2.587,0,0,0-.05.34c-.01.12-.03.36-.03.4s-.01.12-.06.12c-.03,0-.04-.02-.04-.06a.512.512,0,0,0-.03-.2c-.02-.09-.08-.16-.33-.19-.17-.02-.86-.03-.97-.03-.04,0-.04.02-.04.04v.52c0,.21-.01.93,0,1.05.01.41.13.49.76.49a2,2,0,0,0,.64-.07c.17-.07.25-.18.29-.43.01-.07.03-.09.07-.09s.04.05.04.09a4.885,4.885,0,0,1-.09.6c-.04.16-.11.16-.36.16-.48,0-.85-.01-1.11-.02s-.44-.01-.53-.01c-.01,0-.14,0-.28.01-.12.01-.27.01-.37.01-.07,0-.1-.01-.1-.05a.047.047,0,0,1,.05-.05,1.381,1.381,0,0,0,.2-.03c.12-.02.14-.14.17-.33a11.438,11.438,0,0,0,.04-1.34Z" fill="#9e8b50"/>
        <path id="Path_112" data-name="Path 112" d="M98.57,48.24c.08-.2.11-.24.15-.24.07,0,.09.09.15.23.12.26,1.14,2.81,1.53,3.75.23.55.41.63.54.68a.855.855,0,0,0,.25.04c.04,0,.08.01.08.05s-.07.05-.15.05-.57,0-1.01-.01c-.12-.01-.23-.01-.23-.04s.01-.03.04-.04a.119.119,0,0,0,.06-.17l-.57-1.42c-.01-.03-.02-.04-.06-.04H97.9c-.03,0-.05.01-.06.05l-.36.99a1.221,1.221,0,0,0-.09.41c0,.12.11.17.22.17h.06c.05,0,.07.02.07.05s-.04.05-.09.05c-.15,0-.5-.02-.57-.02s-.38.02-.65.02c-.08,0-.12-.01-.12-.05a.056.056,0,0,1,.06-.05c.04,0,.14-.01.19-.01.29-.04.41-.25.54-.57Zm.71,2.57c.03,0,.03-.01.02-.04l-.63-1.69c-.04-.09-.07-.09-.11,0l-.6,1.69c-.01.03,0,.04.02.04Z" fill="#9e8b50"/>
        <path id="Path_113" data-name="Path 113" d="M103.58,49.9c0-.96,0-1.13-.01-1.33s-.05-.31-.26-.34a1.549,1.549,0,0,0-.22-.01.064.064,0,0,1-.05-.05c0-.04.03-.05.1-.05.29,0,.72.01.76.01.07,0,.6-.01.8-.01a2.1,2.1,0,0,1,1.19.27,1.079,1.079,0,0,1,.44.84,1.814,1.814,0,0,1-.78,1.41c.52.65.97,1.21,1.34,1.6a1.152,1.152,0,0,0,.71.43,1.274,1.274,0,0,0,.23.02.056.056,0,0,1,.06.05c0,.04-.04.05-.15.05h-.4a1.368,1.368,0,0,1-.68-.12,3.173,3.173,0,0,1-.87-.91c-.27-.33-.55-.73-.69-.9a.1.1,0,0,0-.09-.04l-.81-.01c-.03,0-.04.01-.04.05V51c0,.6,0,1.07.03,1.33.02.18.06.3.25.33.09.01.23.03.28.03a.047.047,0,0,1,.05.05c0,.03-.03.05-.1.05-.35,0-.76-.02-.78-.02s-.44.02-.63.02c-.07,0-.1-.01-.1-.05a.047.047,0,0,1,.05-.05.693.693,0,0,0,.2-.03c.12-.03.14-.14.17-.33a11.438,11.438,0,0,0,.04-1.34V49.9Zm.55.52a.081.081,0,0,0,.04.08,2.18,2.18,0,0,0,.7.09.847.847,0,0,0,.48-.11,1.1,1.1,0,0,0,.38-.94,1.063,1.063,0,0,0-1.1-1.21,2.264,2.264,0,0,0-.46.04.075.075,0,0,0-.05.07v1.98Z" fill="#9e8b50"/>
        <path id="Path_114" data-name="Path 114" d="M111.31,50.99c0,.6,0,1.08.03,1.34.02.18.05.3.25.33.09.01.23.03.29.03a.047.047,0,0,1,.05.05c0,.03-.03.05-.1.05-.35,0-.76-.02-.79-.02s-.47.02-.66.02c-.07,0-.1-.01-.1-.05,0-.02.01-.04.05-.04a.628.628,0,0,0,.19-.03c.13-.03.17-.15.19-.33.03-.25.03-.74.03-1.34V48.4l-.92.01c-.4.01-.55.05-.65.2a.875.875,0,0,0-.1.2.064.064,0,0,1-.07.06.045.045,0,0,1-.04-.05c0-.07.13-.62.14-.67s.04-.12.07-.12a2.028,2.028,0,0,0,.28.07c.18.02.43.03.5.03h2.41a2.536,2.536,0,0,0,.46-.03c.09-.01.15-.03.18-.03s.03.04.03.07c0,.19-.02.63-.02.7,0,.05-.03.08-.06.08s-.04-.02-.05-.11l-.01-.07c-.02-.19-.16-.33-.77-.34l-.8-.01v2.6Z" fill="#9e8b50"/>
        <path id="Path_115" data-name="Path 115" d="M121.42,48.03a2.312,2.312,0,0,1,2.53,2.32,2.47,2.47,0,0,1-2.56,2.52,2.368,2.368,0,0,1-2.5-2.43A2.44,2.44,0,0,1,121.42,48.03Zm.15,4.58c.57,0,1.73-.31,1.73-2.09a2,2,0,0,0-1.91-2.26,1.774,1.774,0,0,0-1.84,2.01A2.085,2.085,0,0,0,121.57,52.61Z" fill="#9e8b50"/>
        <path id="Path_116" data-name="Path 116" d="M126.93,49.9c0-.96,0-1.13-.01-1.33s-.05-.31-.26-.34a1.549,1.549,0,0,0-.22-.01.064.064,0,0,1-.05-.05c0-.04.03-.05.1-.05.29,0,.69.01.73.01.12,0,1.51.01,1.66,0a1.72,1.72,0,0,0,.29-.03c.04-.01.07-.04.09-.04s.04.03.04.06-.03.12-.05.29c-.01.06-.01.33-.03.41-.01.03-.03.07-.06.07s-.05-.03-.05-.07a.6.6,0,0,0-.06-.23.49.49,0,0,0-.44-.18l-1.05-.01c-.04,0-.05.01-.05.07v1.69c0,.04,0,.06.04.06l.87-.01a2.623,2.623,0,0,0,.29-.01.4.4,0,0,0,.3-.11c.03-.04.06-.07.08-.07s.04.02.04.05-.04.14-.06.34c-.01.12-.02.37-.02.41,0,.06-.01.12-.06.12s-.04-.03-.04-.06a.85.85,0,0,0-.04-.22c-.03-.09-.13-.17-.33-.2-.16-.02-.92-.01-1.02-.01-.04,0-.04.01-.04.06V51c0,.61,0,1.1.03,1.34.02.18.06.3.23.33.09.01.23.03.29.03a.047.047,0,0,1,.05.05c0,.03-.03.05-.1.05-.36,0-.77-.02-.8-.02s-.44.02-.63.02c-.07,0-.1-.01-.1-.05a.047.047,0,0,1,.05-.05,1.381,1.381,0,0,0,.2-.03c.12-.02.14-.14.17-.33a11.438,11.438,0,0,0,.04-1.34V49.9Z" fill="#9e8b50"/>
        <path id="Path_117" data-name="Path 117" d="M140.87,51.99c.02.22.07.55.33.64a1.3,1.3,0,0,0,.41.06c.03,0,.05.01.05.04s-.06.06-.13.06c-.15,0-.86-.01-1.09-.04-.15-.01-.18-.04-.18-.07a.051.051,0,0,1,.04-.05c.04-.01.04-.1.03-.22l-.31-3.12h-.01l-1.54,3.15c-.13.27-.17.33-.23.33s-.09-.06-.22-.28c-.17-.3-.59-1.1-.75-1.43-.19-.39-.7-1.43-.81-1.68h-.03l-.25,2.79c-.01.09-.01.21-.01.31a.172.172,0,0,0,.15.17,1.027,1.027,0,0,0,.25.04c.02,0,.05.02.05.04q0,.06-.12.06c-.24,0-.54-.02-.6-.02s-.36.02-.54.02c-.07,0-.11-.01-.11-.06,0-.02.03-.04.07-.04s.09-.01.19-.02c.21-.04.22-.26.25-.49l.46-4.03c.01-.07.04-.11.07-.11a.151.151,0,0,1,.13.09l1.93,3.83,1.86-3.83c.03-.06.06-.1.1-.1s.08.05.09.17Z" fill="#9e8b50"/>
        <path id="Path_118" data-name="Path 118" d="M144.25,49.9c0-.96,0-1.13-.01-1.33s-.05-.31-.26-.34a1.549,1.549,0,0,0-.22-.01.064.064,0,0,1-.05-.05c0-.04.03-.05.1-.05.29,0,.71.01.74.01s1.38.01,1.53,0a2.893,2.893,0,0,0,.29-.04.318.318,0,0,1,.09-.03c.02,0,.03.03.03.06a2.106,2.106,0,0,0-.05.29c-.01.06-.02.33-.04.41-.01.03-.03.07-.06.07s-.05-.03-.05-.08a.685.685,0,0,0-.04-.22c-.04-.1-.11-.14-.46-.19-.11-.01-.85-.02-.92-.02-.03,0-.04.02-.04.07v1.68c0,.04,0,.07.04.07.08,0,.92,0,1.07-.01s.25-.02.31-.09c.04-.04.07-.08.09-.08s.04.01.04.05a2.588,2.588,0,0,0-.05.34c-.01.12-.03.36-.03.4s-.01.12-.06.12c-.03,0-.04-.02-.04-.06a.512.512,0,0,0-.03-.2c-.02-.09-.08-.16-.33-.19-.17-.02-.86-.03-.97-.03-.04,0-.04.02-.04.04v.52c0,.21-.01.93,0,1.05.01.41.13.49.76.49a2,2,0,0,0,.64-.07c.17-.07.25-.18.29-.43.01-.07.03-.09.07-.09s.04.05.04.09a4.885,4.885,0,0,1-.09.6c-.04.16-.11.16-.36.16-.48,0-.85-.01-1.11-.02s-.44-.01-.53-.01c-.01,0-.14,0-.28.01-.12.01-.27.01-.37.01-.07,0-.1-.01-.1-.05a.047.047,0,0,1,.05-.05,1.381,1.381,0,0,0,.2-.03c.12-.02.14-.14.17-.33a11.44,11.44,0,0,0,.04-1.34Z" fill="#9e8b50"/>
        <path id="Path_119" data-name="Path 119" d="M150.68,48.24c.08-.2.11-.24.15-.24.07,0,.09.09.15.23.12.26,1.14,2.81,1.53,3.75.23.55.41.63.54.68a.855.855,0,0,0,.25.04c.04,0,.08.01.08.05s-.07.05-.15.05-.57,0-1.01-.01c-.12-.01-.22-.01-.22-.04s.01-.03.04-.04a.119.119,0,0,0,.06-.17l-.57-1.42c-.01-.03-.02-.04-.06-.04H150c-.03,0-.05.01-.07.05l-.36.99a1.221,1.221,0,0,0-.09.41c0,.12.11.17.22.17h.06c.05,0,.07.02.07.05s-.04.05-.09.05c-.15,0-.5-.02-.57-.02s-.38.02-.65.02c-.08,0-.12-.01-.12-.05a.056.056,0,0,1,.06-.05c.04,0,.14-.01.19-.01.29-.04.41-.25.54-.57Zm.71,2.57c.03,0,.03-.01.02-.04l-.63-1.69c-.04-.09-.07-.09-.11,0l-.6,1.69c-.01.03,0,.04.02.04Z" fill="#9e8b50"/>
        <path id="Path_120" data-name="Path 120" d="M155.15,52.7c-.09-.04-.09-.07-.09-.23a6.022,6.022,0,0,1,.04-.65c0-.07.01-.1.05-.1s.06.02.06.07a.821.821,0,0,0,1.03.83c.63,0,.96-.36.96-.82,0-.44-.24-.65-.81-1.08l-.29-.22c-.69-.52-.92-.89-.92-1.32,0-.73.57-1.16,1.42-1.16a3.6,3.6,0,0,1,.66.07.786.786,0,0,0,.23.03c.06,0,.07.01.07.04a6.272,6.272,0,0,0-.03.65c0,.09-.01.14-.05.14s-.05-.03-.06-.08a1.488,1.488,0,0,0-.09-.3c-.04-.07-.25-.31-.83-.31-.46,0-.85.23-.85.67,0,.39.2.62.83,1.05l.18.12c.78.53,1.05.96,1.05,1.49a1.2,1.2,0,0,1-.6,1.05,2.015,2.015,0,0,1-1.02.22A2.415,2.415,0,0,1,155.15,52.7Z" fill="#9e8b50"/>
        <path id="Path_121" data-name="Path 121" d="M160.62,49.9c0-.96,0-1.13-.01-1.33s-.05-.31-.26-.34a1.549,1.549,0,0,0-.22-.01.064.064,0,0,1-.05-.05c0-.04.03-.05.1-.05.29,0,.68.01.73.01s.46-.01.65-.01c.07,0,.11.01.11.05a.065.065,0,0,1-.06.05,1.105,1.105,0,0,0-.16.01c-.17.03-.2.14-.22.34s-.01.37-.01,1.33v.86a1.838,1.838,0,0,0,.47,1.51,1.252,1.252,0,0,0,.95.33,1.3,1.3,0,0,0,.99-.44,2.284,2.284,0,0,0,.36-1.5V49.9c0-.96-.01-1.13-.01-1.33s-.04-.31-.25-.34a1.549,1.549,0,0,0-.22-.01.054.054,0,0,1-.05-.05c0-.04.03-.05.1-.05.28,0,.65.01.69.01s.35-.01.54-.01c.07,0,.1.01.1.05a.054.054,0,0,1-.05.05,1.105,1.105,0,0,0-.16.01c-.17.04-.21.14-.22.34s-.01.37-.01,1.33v.66a2.358,2.358,0,0,1-.6,1.85,1.929,1.929,0,0,1-1.34.45,1.958,1.958,0,0,1-1.33-.44,2,2,0,0,1-.56-1.62v-.9Z" fill="#9e8b50"/>
        <path id="Path_122" data-name="Path 122" d="M167.72,49.9c0-.96,0-1.13-.01-1.33s-.05-.31-.26-.34a1.549,1.549,0,0,0-.22-.01.064.064,0,0,1-.05-.05c0-.04.03-.05.1-.05.29,0,.72.01.76.01.07,0,.6-.01.8-.01a2.1,2.1,0,0,1,1.19.27,1.079,1.079,0,0,1,.44.84,1.814,1.814,0,0,1-.78,1.41c.52.65.97,1.21,1.34,1.6a1.152,1.152,0,0,0,.71.43,1.274,1.274,0,0,0,.23.02.056.056,0,0,1,.06.05c0,.04-.04.05-.15.05h-.4a1.367,1.367,0,0,1-.68-.12,3.173,3.173,0,0,1-.87-.91c-.27-.33-.55-.73-.69-.9a.1.1,0,0,0-.09-.04l-.81-.01c-.03,0-.04.01-.04.05V51c0,.6,0,1.07.03,1.33.02.18.06.3.25.33.09.01.23.03.28.03a.047.047,0,0,1,.05.05c0,.03-.03.05-.1.05-.35,0-.75-.02-.78-.02-.01,0-.44.02-.63.02-.07,0-.1-.01-.1-.05a.047.047,0,0,1,.05-.05.693.693,0,0,0,.2-.03c.12-.03.14-.14.17-.33a11.44,11.44,0,0,0,.04-1.34V49.9Zm.55.52a.081.081,0,0,0,.04.08,2.18,2.18,0,0,0,.7.09.847.847,0,0,0,.48-.11,1.1,1.1,0,0,0,.38-.94,1.063,1.063,0,0,0-1.1-1.21,2.264,2.264,0,0,0-.46.04.075.075,0,0,0-.05.07v1.98Z" fill="#9e8b50"/>
        <path id="Path_123" data-name="Path 123" d="M174.05,49.9c0-.96,0-1.13-.01-1.33s-.05-.31-.26-.34a1.549,1.549,0,0,0-.22-.01.064.064,0,0,1-.05-.05c0-.04.03-.05.1-.05.29,0,.71.01.74.01s1.38.01,1.53,0a2.893,2.893,0,0,0,.29-.04.318.318,0,0,1,.09-.03c.02,0,.03.03.03.06a2.106,2.106,0,0,0-.05.29c-.01.06-.02.33-.04.41-.01.03-.03.07-.06.07s-.05-.03-.05-.08a.685.685,0,0,0-.04-.22c-.04-.1-.11-.14-.46-.19-.11-.01-.85-.02-.92-.02-.03,0-.04.02-.04.07v1.68c0,.04,0,.07.04.07.08,0,.92,0,1.07-.01s.25-.02.31-.09c.04-.04.07-.08.09-.08s.04.01.04.05a2.588,2.588,0,0,0-.05.34c-.01.12-.03.36-.03.4s-.01.12-.06.12c-.03,0-.04-.02-.04-.06a.512.512,0,0,0-.03-.2c-.02-.09-.08-.16-.33-.19-.17-.02-.86-.03-.97-.03-.04,0-.04.02-.04.04v.52c0,.21-.01.93,0,1.05.01.41.13.49.76.49a2,2,0,0,0,.64-.07c.17-.07.25-.18.29-.43.01-.07.03-.09.07-.09s.04.05.04.09a4.885,4.885,0,0,1-.09.6c-.04.16-.11.16-.36.16-.48,0-.85-.01-1.11-.02s-.44-.01-.53-.01c-.01,0-.14,0-.28.01-.12.01-.27.01-.37.01-.07,0-.1-.01-.1-.05a.047.047,0,0,1,.05-.05,1.381,1.381,0,0,0,.2-.03c.12-.02.14-.14.17-.33a11.44,11.44,0,0,0,.04-1.34Z" fill="#9e8b50"/>
        <path id="Path_124" data-name="Path 124" d="M184.29,51.99c.02.22.07.55.33.64a1.3,1.3,0,0,0,.41.06c.03,0,.05.01.05.04s-.06.06-.13.06c-.15,0-.86-.01-1.09-.04-.15-.01-.18-.04-.18-.07a.051.051,0,0,1,.04-.05c.04-.01.04-.1.03-.22l-.31-3.12h-.01l-1.54,3.15c-.13.27-.17.33-.23.33s-.09-.06-.22-.28c-.17-.3-.59-1.1-.75-1.43-.19-.39-.7-1.43-.81-1.68h-.03l-.25,2.79c-.01.09-.01.21-.01.31a.172.172,0,0,0,.15.17,1.027,1.027,0,0,0,.25.04c.02,0,.05.02.05.04q0,.06-.12.06c-.24,0-.54-.02-.6-.02s-.36.02-.54.02c-.07,0-.11-.01-.11-.06,0-.02.03-.04.07-.04s.09-.01.19-.02c.21-.04.22-.26.25-.49l.46-4.03c.01-.07.04-.11.07-.11a.151.151,0,0,1,.13.09l1.93,3.83,1.86-3.83c.03-.06.06-.1.1-.1s.08.05.09.17Z" fill="#9e8b50"/>
        <path id="Path_125" data-name="Path 125" d="M187.67,49.9c0-.96,0-1.13-.01-1.33s-.05-.31-.26-.34a1.549,1.549,0,0,0-.22-.01.064.064,0,0,1-.05-.05c0-.04.03-.05.1-.05.29,0,.71.01.74.01s1.38.01,1.53,0a2.893,2.893,0,0,0,.29-.04.318.318,0,0,1,.09-.03c.02,0,.03.03.03.06a2.106,2.106,0,0,0-.05.29c-.01.06-.02.33-.04.41-.01.03-.03.07-.06.07s-.05-.03-.05-.08a.685.685,0,0,0-.04-.22c-.04-.1-.11-.14-.46-.19-.11-.01-.85-.02-.92-.02-.03,0-.04.02-.04.07v1.68c0,.04,0,.07.04.07.08,0,.92,0,1.07-.01s.25-.02.31-.09c.04-.04.07-.08.09-.08s.04.01.04.05a2.588,2.588,0,0,0-.05.34c-.01.12-.03.36-.03.4s-.01.12-.06.12c-.03,0-.04-.02-.04-.06a.512.512,0,0,0-.03-.2c-.02-.09-.08-.16-.33-.19-.17-.02-.86-.03-.97-.03-.04,0-.04.02-.04.04v.52c0,.21-.01.93,0,1.05.01.41.13.49.76.49a2,2,0,0,0,.64-.07c.17-.07.25-.18.29-.43.01-.07.03-.09.07-.09s.04.05.04.09a4.885,4.885,0,0,1-.09.6c-.04.16-.11.16-.36.16-.48,0-.85-.01-1.11-.02s-.44-.01-.53-.01c-.01,0-.14,0-.28.01-.12.01-.27.01-.37.01-.07,0-.1-.01-.1-.05a.047.047,0,0,1,.05-.05,1.381,1.381,0,0,0,.2-.03c.12-.02.14-.14.17-.33a11.44,11.44,0,0,0,.04-1.34Z" fill="#9e8b50"/>
        <path id="Path_126" data-name="Path 126" d="M193.4,51.94c.01.51.07.66.25.7a1.524,1.524,0,0,0,.32.04.047.047,0,0,1,.05.05c0,.04-.04.05-.12.05-.36,0-.62-.02-.67-.02s-.33.02-.62.02c-.07,0-.1-.01-.1-.05a.047.047,0,0,1,.05-.05.968.968,0,0,0,.26-.04c.16-.04.18-.21.18-.77V48.33c0-.25.04-.31.09-.31.07,0,.18.12.25.19.1.1,1.03,1.09,2.02,2.11.63.65,1.31,1.39,1.51,1.59l-.07-3.09c-.01-.4-.04-.54-.24-.57a2.385,2.385,0,0,0-.31-.03c-.04,0-.05-.04-.05-.06,0-.04.05-.04.12-.04.29,0,.6.01.67.01s.28-.01.54-.01c.07,0,.12.01.12.04a.075.075,0,0,1-.07.06.989.989,0,0,0-.15.01c-.21.04-.22.17-.22.54l-.01,3.62c0,.41-.01.44-.05.44-.07,0-.13-.05-.49-.38-.07-.06-.99-.97-1.66-1.67-.74-.78-1.46-1.53-1.66-1.75Z" fill="#9e8b50"/>
        <path id="Path_127" data-name="Path 127" d="M202.03,50.99c0,.6,0,1.08.03,1.34.02.18.05.3.25.33.09.01.23.03.29.03a.047.047,0,0,1,.05.05c0,.03-.03.05-.1.05-.35,0-.76-.02-.79-.02s-.47.02-.66.02c-.07,0-.1-.01-.1-.05,0-.02.01-.04.05-.04a.628.628,0,0,0,.19-.03c.13-.03.17-.15.19-.33.03-.25.03-.74.03-1.34V48.4l-.92.01c-.4.01-.55.05-.65.2a.875.875,0,0,0-.1.2.064.064,0,0,1-.07.06.045.045,0,0,1-.04-.05c0-.07.13-.62.14-.67s.04-.12.07-.12a2.027,2.027,0,0,0,.28.07c.18.02.43.03.5.03h2.41a2.536,2.536,0,0,0,.46-.03c.09-.01.15-.03.18-.03s.03.04.03.07c0,.19-.02.63-.02.7,0,.05-.03.08-.06.08s-.04-.02-.05-.11l-.01-.07c-.02-.19-.16-.33-.77-.34l-.8-.01v2.6Z" fill="#9e8b50"/>
      </g>
    </g>
    <path id="Path_128" data-name="Path 128" d="M60.29,14.57c-.96,3.13-1.65,9.56-12.56,22.21-2.36-4.49-7.27-13.84-17.28-29.61-2.46,3.09-3.17,4.01-4.8,6.2.16.26.31.5.47.76l-.02.02C43.77,42.61,43.77,42.61,47.17,48.8,52.73,39.94,57.61,30,59.09,23.73c-1.33,13.75-8.63,26.42-12.23,32.91C37.55,39.77,26.51,23.91,17.76,6.71,9.29,26.64,8.04,39.17,7.9,47.87l.01,1c0,.12-.01.25-.01.37l.06,6.31a38.549,38.549,0,0,1,8.96-19.14c.19-.21.37-.42.57-.63.04-.05.09-.09.13-.14.73-.78,1.5-1.55,2.3-2.31-.89-1.85-1.38-2.85-2.92-6.26-6.71,12.16-6.69,13.58-8.1,19.69.89-12.32,5.77-21.44,8.3-26.43,1.09,2.28,1.09,2.28,28.48,49.28,9.84-20.56,14.8-36.06,14.66-51.38C60.35,17.01,60.35,15.79,60.29,14.57Z" transform="translate(102.1 37.212)" fill="url(#linear-gradient)"/>
    <g id="Group_21" data-name="Group 21" transform="translate(102.1 37.212)">
      <path id="Path_129" data-name="Path 129" d="M73.71,42.05V41a6.59,6.59,0,0,0,1.78-.2.6.6,0,0,0,.26-.32,8.646,8.646,0,0,0,.17-2.1c.04-1.99.07-3.5.07-4.51l-.02-5.27a10.8,10.8,0,0,0-.14-2.42.493.493,0,0,0-.24-.27,7.529,7.529,0,0,0-1.88-.29V24.57q1.95.06,2.88.06c.69,0,1.47-.02,2.35-.06q2.88,3.675,6.5,7.97c1.61,1.91,3,3.5,4.17,4.74V32.34c0-1.87-.02-3.49-.06-4.85a4.543,4.543,0,0,0-.2-1.49.421.421,0,0,0-.27-.21,15.059,15.059,0,0,0-1.74-.17V24.57q1.35.06,2.7.06,1.845,0,3.33-.06v1.05a7.948,7.948,0,0,0-1.67.2.692.692,0,0,0-.26.17.616.616,0,0,0-.15.29,11.394,11.394,0,0,0-.1,1.92l-.05,4.98-.02,5.02c0,1.35.03,2.69.09,4.04l-.16.17c-1.01-.18-1.72-.3-2.14-.36q-3.195-3.555-7.74-8.91-2.295-2.715-3.7-4.57v4.84q0,1.98.06,4.77a10.52,10.52,0,0,0,.17,2.36.388.388,0,0,0,.19.21,7.327,7.327,0,0,0,1.79.25v1.05q-2.01-.09-2.88-.09Q76.08,41.96,73.71,42.05Z" fill="#fff"/>
      <path id="Path_130" data-name="Path 130" d="M96.4,36.12a6.316,6.316,0,0,1,1.38-4.44,7.68,7.68,0,0,1,9.33-.35,6,6,0,0,1,1.43,4.45,6.641,6.641,0,0,1-1.65,4.83,6.112,6.112,0,0,1-4.59,1.7,5.817,5.817,0,0,1-4.4-1.58A6.4,6.4,0,0,1,96.4,36.12Zm3.45-.85A9.641,9.641,0,0,0,100.7,40a2.178,2.178,0,0,0,1.98,1.09,2.053,2.053,0,0,0,1.79-.92,6.363,6.363,0,0,0,.63-3.36,9.8,9.8,0,0,0-.77-4.63,2.158,2.158,0,0,0-1.98-1.02,2.1,2.1,0,0,0-1.82.94A5.456,5.456,0,0,0,99.85,35.27Z" fill="#fff"/>
      <path id="Path_131" data-name="Path 131" d="M111.1,42.05V41.03a6.406,6.406,0,0,0,1.44-.15.556.556,0,0,0,.24-.24,4.028,4.028,0,0,0,.16-1.32c.03-1.21.05-2.32.05-3.32,0-1.92-.02-3.06-.08-3.42a.568.568,0,0,0-.22-.44,4.907,4.907,0,0,0-1.59-.18V31a19.1,19.1,0,0,0,3.59-.59l1.28-.48c.12,0,.17.08.17.24l-.01.17c-.03.52-.04,1.27-.04,2.25.42-.41.89-.92,1.41-1.54a3.272,3.272,0,0,1,1-.91,2.793,2.793,0,0,1,1.94-.07q-.1,1.245-.15,3.39l-.56.2a1.522,1.522,0,0,0-1.52-.87,2.093,2.093,0,0,0-1.28.39,1.755,1.755,0,0,0-.69.89,16.293,16.293,0,0,0-.1,2.55q0,3.165.09,3.69a.611.611,0,0,0,.24.47,5.691,5.691,0,0,0,1.88.26v1.02l-1.4-.04c-.89-.02-1.66-.04-2.3-.04-.61,0-1.33.01-2.14.04Z" fill="#fff"/>
      <path id="Path_132" data-name="Path 132" d="M122.81,42.05V41.03a4.563,4.563,0,0,0,1.46-.17.584.584,0,0,0,.23-.43,23.631,23.631,0,0,0,.1-2.89,50.106,50.106,0,0,0-.12-5.2c-.07-.22-.35-.34-.87-.35l-.8-.02V31a24.105,24.105,0,0,0,2.61-.41,11.8,11.8,0,0,0,1.95-.6.9.9,0,0,1,.26-.06c.12,0,.17.1.17.31,0,.16-.01.37-.03.64-.01.12-.02.32-.02.62v.45l2.04-1.53a3.287,3.287,0,0,1,1.96-.49,3.723,3.723,0,0,1,2.11.52,3.186,3.186,0,0,1,1.19,1.65l2.12-1.68a2.718,2.718,0,0,1,1.71-.49,3.849,3.849,0,0,1,2.88.96,4.376,4.376,0,0,1,.92,3.12l-.02,1.04c-.03,1.15-.05,2.17-.05,3.07a15.056,15.056,0,0,0,.11,2.31.674.674,0,0,0,.25.41,4.753,4.753,0,0,0,1.4.19v1.02c-1.03-.05-1.93-.07-2.7-.07-.74,0-1.52.02-2.32.07l-.15-.24a42.818,42.818,0,0,0,.32-5.24,9.151,9.151,0,0,0-.47-3.79,1.791,1.791,0,0,0-1.66-.75,2.387,2.387,0,0,0-1.36.39,1.838,1.838,0,0,0-.77.89,10.569,10.569,0,0,0-.12,2.19q0,3.3.09,4.56a1.056,1.056,0,0,0,.23.72,4.763,4.763,0,0,0,1.59.26v1.02c-1.09-.05-2.16-.07-3.2-.07-1.3,0-2.47.02-3.51.07V41.04c.82,0,1.3-.12,1.45-.36a11.385,11.385,0,0,0,.21-3.13,36.7,36.7,0,0,0-.12-3.94,1.789,1.789,0,0,0-.6-1.17,1.993,1.993,0,0,0-1.33-.4,2.262,2.262,0,0,0-1.13.29,2.46,2.46,0,0,0-.86.81,1.6,1.6,0,0,0-.2.89l.01.47c.02.23.04.89.04,1.96l-.01,1.47a21.311,21.311,0,0,0,.08,2.51.447.447,0,0,0,.21.36,4.877,4.877,0,0,0,1.36.23v1.02c-1-.05-2.08-.07-3.27-.07C125.76,41.97,124.64,42,122.81,42.05Z" fill="#fff"/>
      <path id="Path_133" data-name="Path 133" d="M158.2,41.03v1.02l-.96-.04c-.51-.02-1.02-.04-1.52-.04-.78,0-1.52.02-2.22.07l-.12-.14.12-1.71-2.6,1.95a5.325,5.325,0,0,1-1.23.16,2.638,2.638,0,0,1-2.04-.78,3.276,3.276,0,0,1-.72-2.29,3.139,3.139,0,0,1,.98-2.62c.85-.66,2.71-1.26,5.61-1.78a3.857,3.857,0,0,0-.51-2.14,2.466,2.466,0,0,0-2.11-.91,3.4,3.4,0,0,0-.69.08,2.91,2.91,0,0,0-.71.26l-.56,1.33-.86-.21.02-.56-.01-.55-.01-.5a16.984,16.984,0,0,1,2.74-1.48,5.083,5.083,0,0,1,1.69-.22,5.605,5.605,0,0,1,2.39.44,2.97,2.97,0,0,1,1.35,1.21,4.705,4.705,0,0,1,.42,2.22c0,.41-.02,1.14-.05,2.19-.03,1.08-.05,1.95-.05,2.61a11.057,11.057,0,0,0,.09,1.9.464.464,0,0,0,.24.31A5.5,5.5,0,0,0,158.2,41.03Zm-4.71-5.12a7.367,7.367,0,0,0-2.84,1.03,1.852,1.852,0,0,0-.66,1.49,1.655,1.655,0,0,0,.42,1.2,1.432,1.432,0,0,0,1.07.44,2.872,2.872,0,0,0,2.01-1.11Z" fill="#fff"/>
      <path id="Path_134" data-name="Path 134" d="M161.73,42.05V41.4a8.249,8.249,0,0,0,1.29-.76q.165-3.375.16-7.04,0-2.88-.06-5.43a8.325,8.325,0,0,0-.17-2.09.416.416,0,0,0-.26-.24,12.562,12.562,0,0,0-1.81-.22V24.57c1.6.04,3.09.06,4.46.06,1.33,0,2.59-.02,3.77-.06v1.05a5.951,5.951,0,0,0-1.97.3.706.706,0,0,0-.23.45c-.05.23-.08,1.57-.11,4.03l-.07,6.07c0,1.14.03,2.45.09,3.95,1.08.06,1.89.09,2.41.09a17.727,17.727,0,0,0,3.95-.37c.22-.75.44-1.64.65-2.68h1.1c-.19,1.21-.35,2.71-.5,4.51-.79.06-1.51.09-2.18.09l-4.5-.06-2.02-.03C164.79,41.95,163.46,41.98,161.73,42.05Z" fill="#fff"/>
      <path id="Path_135" data-name="Path 135" d="M189.09,41.03v1.02l-.96-.04c-.51-.02-1.02-.04-1.52-.04-.78,0-1.52.02-2.22.07l-.12-.14.12-1.71-2.6,1.95a5.325,5.325,0,0,1-1.23.16,2.638,2.638,0,0,1-2.04-.78,3.276,3.276,0,0,1-.72-2.29,3.139,3.139,0,0,1,.98-2.62c.85-.66,2.71-1.26,5.61-1.78a3.857,3.857,0,0,0-.51-2.14,2.466,2.466,0,0,0-2.11-.91,3.4,3.4,0,0,0-.69.08,2.91,2.91,0,0,0-.71.26l-.56,1.33-.86-.21.02-.56-.01-.55-.01-.5a16.984,16.984,0,0,1,2.74-1.48,5.083,5.083,0,0,1,1.69-.22,5.605,5.605,0,0,1,2.39.44,2.97,2.97,0,0,1,1.35,1.21,4.705,4.705,0,0,1,.42,2.22c0,.41-.02,1.14-.05,2.19-.03,1.08-.05,1.95-.05,2.61a11.057,11.057,0,0,0,.09,1.9.464.464,0,0,0,.24.31A5.5,5.5,0,0,0,189.09,41.03Zm-4.71-5.12a7.367,7.367,0,0,0-2.84,1.03,1.852,1.852,0,0,0-.66,1.49,1.655,1.655,0,0,0,.42,1.2,1.432,1.432,0,0,0,1.07.44,2.872,2.872,0,0,0,2.01-1.11Z" fill="#fff"/>
      <path id="Path_136" data-name="Path 136" d="M193.92,42.31l-.59-.24q.225-3.015.22-8.34c0-1.6-.01-2.84-.04-3.71l-.07-3.2a2.523,2.523,0,0,0-.12-.97.46.46,0,0,0-.31-.22,11.683,11.683,0,0,0-1.46-.1v-.9a13.068,13.068,0,0,0,2.17-.29,12.86,12.86,0,0,0,2.24-.6l.55-.21q.24,0,.24.3l-.04,1.31q-.03.675-.09,7.06l1.51-1.26a4.379,4.379,0,0,1,1.28-.8,3.94,3.94,0,0,1,1.36-.2,4.414,4.414,0,0,1,3.36,1.33,4.872,4.872,0,0,1,1.26,3.49,7.461,7.461,0,0,1-.35,2.19,6.245,6.245,0,0,1-.87,1.85,5.262,5.262,0,0,1-1.34,1.27c-.69.44-1.28.84-1.76,1.21a5.668,5.668,0,0,1-1.45.85,4.564,4.564,0,0,1-1.43.2,5.551,5.551,0,0,1-1.56-.21,6.892,6.892,0,0,1-1.63-.77A9.866,9.866,0,0,0,193.92,42.31Zm2.7-8.82v5.72a2.974,2.974,0,0,0,2.58,1.38,2.582,2.582,0,0,0,2.16-1.07,5.246,5.246,0,0,0,.82-3.23,4.814,4.814,0,0,0-.84-3.08,2.7,2.7,0,0,0-2.2-1.04,2.867,2.867,0,0,0-1.35.33A3.706,3.706,0,0,0,196.62,33.49Z" fill="#fff"/>
    </g>
  </g>
</svg>
